<?xml version="1.0" encoding="utf-8"?><!-- Uploaded to: SVG Repo, www.svgrepo.com, Generator: SVG Repo Mixer Tools -->
<svg fill="#000000" width="800px" height="800px" viewBox="0 0 24 24" xmlns="http://www.w3.org/2000/svg">
  <path d="M11,15.2928932 L11,4.5 C11,4.22385763 11.2238576,4 11.5,4 C11.7761424,4 12,4.22385763 12,4.5 L12,15.2928932 L15.1464466,12.1464466 C15.3417088,11.9511845 15.6582912,11.9511845 15.8535534,12.1464466 C16.0488155,12.3417088 16.0488155,12.6582912 15.8535534,12.8535534 L11.8535534,16.8535534 C11.6582912,17.0488155 11.3417088,17.0488155 11.1464466,16.8535534 L7.14644661,12.8535534 C6.95118446,12.6582912 6.95118446,12.3417088 7.14644661,12.1464466 C7.34170876,11.9511845 7.65829124,11.9511845 7.85355339,12.1464466 L11,15.2928932 Z M4.5,20 C4.22385763,20 4,19.7761424 4,19.5 C4,19.2238576 4.22385763,19 4.5,19 L18.5,19 C18.7761424,19 19,19.2238576 19,19.5 C19,19.7761424 18.7761424,20 18.5,20 L4.5,20 Z"/>
</svg>