<?xml version="1.0" encoding="utf-8"?><!-- Uploaded to: SVG Repo, www.svgrepo.com, Generator: SVG Repo Mixer Tools -->
<svg fill="#000000" width="800px" height="800px" viewBox="0 0 24 24" xmlns="http://www.w3.org/2000/svg">
  <path d="M12,6.70710678 L8.85355339,9.85355339 C8.65829124,10.0488155 8.34170876,10.0488155 8.14644661,9.85355339 C7.95118446,9.65829124 7.95118446,9.34170876 8.14644661,9.14644661 L12.1464466,5.14644661 C12.3417088,4.95118446 12.6582912,4.95118446 12.8535534,5.14644661 L16.8535534,9.14644661 C17.0488155,9.34170876 17.0488155,9.65829124 16.8535534,9.85355339 C16.6582912,10.0488155 16.3417088,10.0488155 16.1464466,9.85355339 L13,6.70710678 L13,17.2928932 L16.1464466,14.1464466 C16.3417088,13.9511845 16.6582912,13.9511845 16.8535534,14.1464466 C17.0488155,14.3417088 17.0488155,14.6582912 16.8535534,14.8535534 L12.8535534,18.8535534 C12.6582912,19.0488155 12.3417088,19.0488155 12.1464466,18.8535534 L8.14644661,14.8535534 C7.95118446,14.6582912 7.95118446,14.3417088 8.14644661,14.1464466 C8.34170876,13.9511845 8.65829124,13.9511845 8.85355339,14.1464466 L12,17.2928932 L12,6.70710678 Z M5.5,21 C5.22385763,21 5,20.7761424 5,20.5 C5,20.2238576 5.22385763,20 5.5,20 L19.5,20 C19.7761424,20 20,20.2238576 20,20.5 C20,20.7761424 19.7761424,21 19.5,21 L5.5,21 Z M5.5,4 C5.22385763,4 5,3.77614237 5,3.5 C5,3.22385763 5.22385763,3 5.5,3 L19.5,3 C19.7761424,3 20,3.22385763 20,3.5 C20,3.77614237 19.7761424,4 19.5,4 L5.5,4 Z"/>
</svg>