<?xml version="1.0" encoding="utf-8"?>
<!-- Generator: Adobe Illustrator 22.1.0, SVG Export Plug-In . SVG Version: 6.00 Build 0)  -->
<svg version="1.1" id="Layer_1" xmlns="http://www.w3.org/2000/svg" xmlns:xlink="http://www.w3.org/1999/xlink" x="0px" y="0px"
	 viewBox="0 0 24 24" style="enable-background:new 0 0 24 24;" xml:space="preserve">
<path d="M17,9h7V2h-1v5.2C21.1,3,16.9,0,12,0C5.4,0,0,5.4,0,12s5.4,12,12,12c6.3,0,11.5-4.8,12-11h-1c-0.5,5.6-5.2,10-11,10
	C5.9,23,1,18.1,1,12S5.9,1,12,1c4.7,0,8.6,2.9,10.2,7H17C17,8,17,9,17,9z"/>
</svg>
